<?xml version="1.0" encoding="UTF-8"?>
<!-- Generator: Adobe Illustrator 23.0.4, SVG Export Plug-In . SVG Version: 6.00 Build 0)  -->
<svg version="1.1" id="Layer_1" xmlns="http://www.w3.org/2000/svg" xmlns:xlink="http://www.w3.org/1999/xlink" x="0px" y="0px" viewBox="0 0 641.8 116.4" style="enable-background:new 0 0 641.8 116.4;" xml:space="preserve">
<style type="text/css">
	.st0{fill:#FFFFFF;}
	.st1{fill:url(#SVGID_1_);}
	.st2{fill:url(#SVGID_2_);}
	.st3{fill:url(#SVGID_3_);}
	.st4{fill:url(#SVGID_4_);}
	.st5{fill:url(#SVGID_5_);}
	.st6{fill:url(#SVGID_6_);}
	.st7{fill:url(#SVGID_7_);}
	.st8{fill:url(#SVGID_8_);}
	.st9{fill:url(#SVGID_9_);}
</style>
<g transform="translate(-15.77 -28.29)">
	<path d="M205,116.8c0,0-5.9,6-18.6,6c-16,0-26.3-11-26.3-27.6s10-28,24.6-28c15,0,23.2,11.2,23.2,26.1v1.8h-40.6v0.1   c0,13.9,8.6,21.4,19.5,21.4c10.1,0,15.5-5,15.5-5L205,116.8z M167.6,89.3h32.9c-1-10-6.4-16-15.9-16   C175.7,73.3,169.2,78.6,167.6,89.3z"/>
	<path d="M242.3,121.5h-4.9l-24.3-52.9h7.9l17.8,41.3c0.5,1.1,0.8,2.2,0.9,3.4h0.4c0.1-1.2,0.5-2.3,1-3.4l17.8-41.3h7.7L242.3,121.5   z"/>
	<path d="M317.2,116.8c0,0-5.9,6-18.6,6c-16,0-26.3-11-26.3-27.6s10-28,24.6-28c15,0,23.2,11.2,23.2,26.1v1.8h-40.6v0.1   c0,13.9,8.6,21.4,19.5,21.4c10.1,0,15.5-5,15.5-5L317.2,116.8z M279.7,89.3h32.9c-1-10-6.4-16-15.9-16   C287.8,73.3,281.4,78.6,279.7,89.3L279.7,89.3z"/>
	<path d="M358,74.2h-2.6c-8.6,0-14.6,7.1-14.9,15.5v31.8h-7.1V68.5h5l0.8,9.8h0.4c2.7-6.2,8.9-10.1,15.6-10h2.8L358,74.2z"/>
	<path d="M409.3,79.9v0.2c0,0,1.6,1.5,1.6,6.7c0,8.8-7.2,17-22.4,17c-3.2,0-6.4-0.4-9.5-1.4c-2,1.1-2.5,2.1-2.5,3.7   c0,2.3,1.3,3.9,13.4,4.5c20.3,0.9,26.8,5.5,26.8,15.9c0,9.6-9.3,18.2-28,18.2s-26.3-5.9-26.3-14.1c0-4.4,2.1-8.6,8.1-11.8   c-5.2-2.5-7.1-6.3-7.1-10.8c0-3.8,2.3-7.3,7.6-10.2c-3.2-3-5-7.2-4.9-11.6c0-10.7,8.6-18.5,22.4-18.5c2.8,0,5.6,0.3,8.3,1h19.5   v11.3H409.3z M382,121.6c-2.8,1.4-5.2,4-5.2,7.3s3.4,6,11.8,6c9.1,0,13.1-2.8,13.1-6.4c0-3.3-2.1-5.9-12-6.3   C387,122.1,384.3,121.8,382,121.6L382,121.6z M379.8,85.8c0,4.7,3.1,8.4,8.7,8.4c5.8,0,9.1-3.8,9.1-8.4s-3.3-8.4-9.1-8.4   C382.9,77.4,379.8,81.3,379.8,85.8z"/>
	<path d="M424.9,51.7c-0.1-4.7,3.7-8.6,8.4-8.7c0.2,0,0.3,0,0.5,0c4.8-0.2,8.8,3.5,8.9,8.3c0,0.1,0,0.3,0,0.4c0,5-3.9,8.6-9,8.6   S424.9,56.7,424.9,51.7z M426,68.5h15.1v52.9H426V68.5z"/>
	<path d="M448.2,68.5h16.5l11.2,30.8c0.5,1.4,0.8,2.8,0.9,4.3h0.8c0.1-1.5,0.4-2.9,1-4.3l11.2-30.8h16.5l-23.7,52.9h-10.7   L448.2,68.5z"/>
	<path d="M512.1,51.7c-0.1-4.7,3.7-8.6,8.4-8.7c0.2,0,0.3,0,0.5,0c4.8-0.2,8.8,3.5,8.9,8.3c0,0.1,0,0.3,0,0.4c0,5-3.9,8.6-9,8.6   S512.1,56.7,512.1,51.7z M513.2,68.5h15.1v52.9h-15.1V68.5z"/>
	<path d="M557.4,121.5h-15.1V68.5h9.5l2.1,7.5h0.9c4-5.9,8.7-8.8,17.1-8.8c13.6,0,22,9.3,22,23.6v30.8h-15.1V92   c0-6.4-3.9-11.6-10.7-11.6s-10.7,5.5-10.7,10.8V121.5z"/>
	<path d="M650.2,79.9v0.2c0,0,1.6,1.5,1.6,6.7c0,8.8-7.2,17-22.4,17c-3.2,0-6.4-0.4-9.5-1.4c-2,1.1-2.5,2.1-2.5,3.7   c0,2.3,1.3,3.9,13.4,4.5c20.3,0.9,26.8,5.5,26.8,15.9c0,9.6-9.3,18.2-28,18.2s-26.3-5.9-26.3-14.1c0-4.4,2.1-8.6,8.1-11.8   c-5.2-2.5-7.1-6.3-7.1-10.8c0-3.8,2.3-7.3,7.6-10.2c-3.2-3-4.9-7.2-4.8-11.6c0-10.7,8.6-18.5,22.4-18.5c2.8,0,5.6,0.3,8.3,1h19.4   v11.3H650.2z M623,121.6c-2.8,1.4-5.2,4-5.2,7.3s3.4,6,11.8,6c9.1,0,13.1-2.8,13.1-6.4c0-3.3-2.1-5.9-12-6.3   C627.9,122.1,625.2,121.8,623,121.6z M620.7,85.8c0,4.7,3.2,8.4,8.7,8.4c5.8,0,9.1-3.8,9.1-8.4s-3.3-8.4-9.1-8.4   C623.8,77.4,620.7,81.3,620.7,85.8z"/>
	<path class="st0" d="M72.7,105.5L72.7,105.5L72.7,105.5z"/>
	
		<linearGradient id="SVGID_1_" gradientUnits="userSpaceOnUse" x1="53.5278" y1="33.1888" x2="132.6278" y2="88.0888" gradientTransform="matrix(1 0 0 -1 -15.77 144.29)">
		<stop offset="0" style="stop-color:#E1EBF4"/>
		<stop offset="0.5" style="stop-color:#BFD7E8"/>
		<stop offset="1" style="stop-color:#81B2D3"/>
	</linearGradient>
	<path class="st1" d="M44,117.4c5-1.1,9.8-2.8,14.5-4.8c4.9-2.1,9.6-4.5,14.1-7.2l0.9-0.5c-0.3-1.5-0.6-3-0.9-4.5   c-1.2-5.4-2.7-10.8-4.5-16.1c-3.3,2.2-10.2,6.3-10.2,6.3l-2.2,1.2l-1,0.6L53.4,93l-0.2,0.1c-10.6,5.4-20.6,8.6-28.7,9.4H24   l-0.9,0.1c-0.2,0.6-0.4,1.2-0.5,1.9c-0.9,3.6-0.9,7.9,1.9,10.7c2.1,1.9,4.7,3,7.5,3.2C36,118.8,40.1,118.4,44,117.4z"/>
	
		<linearGradient id="SVGID_2_" gradientUnits="userSpaceOnUse" x1="59.88" y1="58.4825" x2="113.923" y2="58.4825" gradientTransform="matrix(1 0 0 -1 -15.77 144.29)">
		<stop offset="0" style="stop-color:#5FC2DA"/>
		<stop offset="0.5" style="stop-color:#51A4CB"/>
		<stop offset="1" style="stop-color:#4183BB"/>
	</linearGradient>
	<path class="st2" d="M98.2,117c0-1.9-0.1-3.7-0.2-5.6c-0.5-6.8-1.6-13.6-3.2-20.3L94.5,90c-0.2-0.9-0.4-1.8-0.7-2.6   c-1.9-7.1-4.2-14-7.1-20.8c-2.6-6.3-5.8-12.4-9.4-18.2C74,42.9,70,37.9,65.2,33.6c-3.2-2.7-7.2-5.5-11.6-5.3   c-5.1,0.3-8,5.1-9.5,9.5l0.7,0.6l0.3,0.3c6.2,5.4,12.3,13.9,17.8,24.5l0.1,0.2l0,0V63c0.6,1,1.1,2.4,1.6,3.5   c1.9,4.1,3.6,8.3,5.2,12.5l0.7,2.1l0.5,1.3c0.5,1.5,1,3,1.5,4.6c1.7,5.3,3,10.7,4.1,16.1l0.4,2.4l0.2,1.1c0.1,0.5,0.2,1,0.2,1.5   v0.3c1.8,11.8,1.9,22.2,0.1,30.2c0,0-0.2,1-0.2,1.2c4.2,3,8.1,4.1,11.2,3.1C94.8,140.9,98.3,131.5,98.2,117z"/>
	<path class="st0" d="M103.3,116.3l-1.8-0.6"/>
	<path class="st0" d="M34.6,73.9l1.7-0.6"/>
	
		<linearGradient id="SVGID_3_" gradientUnits="userSpaceOnUse" x1="52.6734" y1="34.2863" x2="131.8234" y2="89.2363" gradientTransform="matrix(1 0 0 -1 -15.77 144.29)">
		<stop offset="0" style="stop-color:#E1EBF4"/>
		<stop offset="0.5" style="stop-color:#BFD7E8"/>
		<stop offset="1" style="stop-color:#81B2D3"/>
	</linearGradient>
	<path class="st3" d="M113.3,70.3c2.4-3.1,4.5-6.5,6.2-10c1.2-2.4,2.1-5,2.7-7.7c0.4-2,0.4-4.2-0.1-6.2c-0.5-2-1.8-3.7-3.5-4.8   c-2.5-1.5-5.4-2.2-8.3-2.1l-0.6,0.4c0,0.2-0.1,0.3-0.2,0.4l-0.2,0.4h-0.3c-3.2,7.5-9.1,16-18.1,24.5l0.1,0.2   c-0.4,0.4-0.6,0.7-0.9,1.1c0.6,1.5,1.3,3.1,1.9,4.6c2.1,5.4,3.8,10.9,5.2,16.5c1.3-1.2,2.7-2.4,3.9-3.6   C105.6,79.7,109.7,75.2,113.3,70.3z"/>
	
		<linearGradient id="SVGID_4_" gradientUnits="userSpaceOnUse" x1="52.91" y1="58.015" x2="134.32" y2="58.015" gradientTransform="matrix(1 0 0 -1 -15.77 144.29)">
		<stop offset="0" style="stop-color:#CEEB8D"/>
		<stop offset="0.5" style="stop-color:#A5D757"/>
		<stop offset="1" style="stop-color:#69B11F"/>
	</linearGradient>
	<path class="st4" d="M131,81.3c-2-1.7-4.2-3.1-6.6-4.3c-2.9-1.5-6-2.7-9.1-3.7c-1,1.3-2,2.6-3.1,3.8c-3.9,4.6-8,8.8-12.5,12.8   c11.7,1.9,21.6,5.1,28.7,9.3c0.5,0,1,0.1,1.5,0.1h0.4c2.5-2,5-4.7,5.6-8C136.5,87.3,133.9,83.8,131,81.3L131,81.3z"/>
	
		<linearGradient id="SVGID_5_" gradientUnits="userSpaceOnUse" x1="59.6638" y1="102.268" x2="118.0338" y2="97.658" gradientTransform="matrix(1 0 0 -1 -15.77 144.29)">
		<stop offset="1.000000e-02" style="stop-color:#8DD1AC"/>
		<stop offset="0.5" style="stop-color:#41AD8C"/>
		<stop offset="1" style="stop-color:#329166"/>
	</linearGradient>
	<path class="st5" d="M77.9,43.1c0.9,1.3,1.8,2.7,2.6,4c3.2,5.1,5.9,10.4,8.3,15.9c5.4-10.6,11.5-19,17.7-24.4   c0.1-0.3,0.3-0.7,0.4-1.1c-1.1-2.8-2.7-5.8-5.2-7.5c-3.4-2.3-7.9-1-11.2,0.8c-2.3,1.3-4.4,2.9-6.3,4.8c-2,1.9-3.8,4-5.5,6.2   C78.3,42.6,77.9,43.1,77.9,43.1L77.9,43.1z"/>
	
		<linearGradient id="SVGID_6_" gradientUnits="userSpaceOnUse" x1="53.239" y1="20.8774" x2="111.609" y2="16.2774" gradientTransform="matrix(1 0 0 -1 -15.77 144.29)">
		<stop offset="1.000000e-02" style="stop-color:#8DD1AC"/>
		<stop offset="0.5" style="stop-color:#41AD8C"/>
		<stop offset="1" style="stop-color:#329166"/>
	</linearGradient>
	<path class="st6" d="M56.5,136.1c0.8,1.8,1.9,3.5,3.3,4.9c1.3,1.3,3.1,2.1,4.9,2.3c3.2,0.3,6.3-1.1,8.9-2.9l0.1-0.4   c0.1-0.4,0.2-0.8,0.3-1.2l0.1-0.2c-1.8-8-1.8-18.4,0-30.1c-1.4,0.8-2.9,1.6-4.3,2.4c-5.2,2.8-10.7,5.3-16.3,7.3   c0,3.6,0.3,7.2,0.9,10.7C54.8,131.4,55.5,133.8,56.5,136.1z"/>
	
		<linearGradient id="SVGID_7_" gradientUnits="userSpaceOnUse" x1="52.91" y1="57.985" x2="134.32" y2="57.985" gradientTransform="matrix(1 0 0 -1 -15.77 144.29)">
		<stop offset="0" style="stop-color:#CEEB8D"/>
		<stop offset="0.5" style="stop-color:#A5D757"/>
		<stop offset="1" style="stop-color:#69B11F"/>
	</linearGradient>
	<path class="st7" d="M51.9,89.9c-1.3-1.1-2.5-2.3-3.8-3.5c-4.3-4-8.2-8.4-11.8-13.1c0,0-0.8,0.3-1.7,0.6c-2.8,1-5.6,2.2-8.3,3.6   c-2.3,1.2-4.4,2.6-6.3,4.3c-1.5,1.3-2.7,2.9-3.6,4.7c-0.8,1.8-1,3.7-0.5,5.6c0.8,2.9,3,5.3,5.4,7.1h0.4c0.5,0,1,0,1.5-0.1   C30.3,95,40.2,91.8,51.9,89.9z"/>
	
		<linearGradient id="SVGID_8_" gradientUnits="userSpaceOnUse" x1="60.5431" y1="72.8772" x2="138.2631" y2="31.0972" gradientTransform="matrix(1 0 0 -1 -15.77 144.29)">
		<stop offset="0" style="stop-color:#79AFD2"/>
		<stop offset="0.12" style="stop-color:#70A6CD"/>
		<stop offset="0.31" style="stop-color:#588CC0"/>
		<stop offset="0.56" style="stop-color:#3063AC"/>
		<stop offset="0.57" style="stop-color:#2F62AB"/>
		<stop offset="1" style="stop-color:#1A3292"/>
	</linearGradient>
	<path class="st8" d="M128.6,102.6l-0.9-0.1h-0.4c-8.2-0.7-18-4-28.7-9.3c0.4,1.7,0.7,3.3,1,5c1.1,5.8,1.7,11.7,1.8,17.6   c0,0,0.8,0.2,1.8,0.6c2.9,0.9,6,1.6,9,2c2.6,0.4,5.2,0.4,7.8,0.1c2-0.2,3.9-0.9,5.6-1.9c1.7-1.1,2.9-2.8,3.5-4.8   C130.1,108.7,129.5,105.5,128.6,102.6L128.6,102.6z"/>
	
		<linearGradient id="SVGID_9_" gradientUnits="userSpaceOnUse" x1="64.3982" y1="80.0466" x2="142.1182" y2="38.2666" gradientTransform="matrix(1 0 0 -1 -15.77 144.29)">
		<stop offset="0" style="stop-color:#79AFD2"/>
		<stop offset="0.12" style="stop-color:#70A6CD"/>
		<stop offset="0.31" style="stop-color:#588CC0"/>
		<stop offset="0.56" style="stop-color:#3063AC"/>
		<stop offset="0.57" style="stop-color:#2F62AB"/>
		<stop offset="1" style="stop-color:#1A3292"/>
	</linearGradient>
	<path class="st9" d="M60.1,65.2c-8.4-8.5-14.6-16.9-17.8-24.4c-0.4-0.3-0.8-0.6-1.2-0.9l-0.3-0.2c-3.1,0.1-6.4,0.8-8.8,2.8   c-3.2,2.8-3.3,7.4-2.4,11.2c0.7,2.7,1.7,5.3,3,7.8c1.6,3.1,3.5,6.1,5.6,8.9c1.1,1.5,2.2,2.9,3.4,4.3c4.1,4.9,8.6,9.4,13.4,13.6   c4-2.2,8-4.6,11.8-7.2c-0.4-1.2-0.9-2.4-1.3-3.6C63.9,73.3,62.1,69.2,60.1,65.2L60.1,65.2z"/>
</g>
</svg>